<svg width="370" height="370" viewBox="0 0 370 370" fill="none" xmlns="http://www.w3.org/2000/svg">
	<path
		d="M6.11264 184.641C6.11264 231.971 24.9143 277.362 58.3814 310.829C91.8485 344.296 137.24 363.098 184.569 363.098C231.899 363.098 277.29 344.296 310.757 310.829C344.224 277.362 363.026 231.971 363.026 184.641C363.026 137.312 344.224 91.9205 310.757 58.4533C277.29 24.9862 231.899 6.18457 184.569 6.18457C137.24 6.18457 91.8485 24.9862 58.3814 58.4533C24.9143 91.9205 6.11264 137.312 6.11264 184.641Z"
		fill="black" />
	<path fill-rule="evenodd" clip-rule="evenodd"
		d="M239.76 119.31L263.22 148.21C206.03 190.11 230.36 335.84 166.94 362.21C122.07 357.8 82.0501 336.74 53.1601 305.31C110.99 235.84 170.8 169.71 239.76 119.31Z"
		fill="#D65A1E" />
	<path fill-rule="evenodd" clip-rule="evenodd"
		d="M206.04 86.8081L231.32 112.09C147.56 183.1 94.5601 242.58 48.9701 299.28L48.2201 299.71C21.9601 268.64 6.13007 228.47 6.13007 184.62C6.13007 181.07 6.24007 177.55 6.44006 174.06C38.1601 110.06 157.31 131.04 206.04 86.8081Z"
		fill="#D65A1E" />
	<path fill-rule="evenodd" clip-rule="evenodd"
		d="M100.51 37.7448C140.32 38.1428 190.9 63.7569 195.82 78.4009C194.2 115.16 25.2201 104.39 7.44006 165.06L7.19006 165.09C12.7801 113.89 40.0301 69.1798 79.6001 40.3398C86.0601 38.4618 93.1501 37.6718 100.51 37.7448Z"
		fill="#D65A1E" />
	<path fill-rule="evenodd" clip-rule="evenodd"
		d="M184.57 6.18262C193.52 6.18262 202.34 6.84502 210.94 8.12012C237.49 36.8551 223.32 62.6691 209.07 70.5581C196.9 79.2211 165.52 24.9771 86.8501 35.3391C114.93 16.9131 148.5 6.18312 184.57 6.18312V6.18262Z"
		fill="#D65A1E" />
	<path fill-rule="evenodd" clip-rule="evenodd"
		d="M265.91 158.68C267.54 158.71 269.243 159.04 271.037 159.65C294.294 177.9 336.838 265.72 311.974 309.5C311.969 309.5 311.979 309.52 311.974 309.53C279.582 342.56 234.45 363.06 184.574 363.06C183.204 363.06 181.844 363.06 180.474 363.03C234.214 324.19 222.514 169.35 265.914 158.68H265.91Z"
		fill="#D65A1E" />
	<path fill-rule="evenodd" clip-rule="evenodd"
		d="M308.849 136.15C328.385 136.77 351.184 147.01 361.912 169.28L362.474 170.62C362.834 175.24 363.037 179.91 363.037 184.62C363.037 228.77 346.969 269.17 320.38 300.34C344.989 223.09 270.114 155.17 278.255 147.62C283.637 139.82 295.482 135.73 308.849 136.15H308.849Z"
		fill="#D65A1E" />
	<path fill-rule="evenodd" clip-rule="evenodd"
		d="M314.505 62.3701C339.718 89.1541 356.785 123.71 361.63 162.06C342.663 130.34 314.369 118.82 268.63 142.81L245.16 113.31C260.49 99.4811 292.802 75.6081 314.505 62.3701Z"
		fill="#D65A1E" />
	<path fill-rule="evenodd" clip-rule="evenodd"
		d="M218.66 9.43262C253.62 16.201 284.945 33.1896 309.412 57.1506L308.974 57.9326C283.237 69.6516 261.22 88.8616 238.54 106.68L211.47 81.4006C229.11 63.6166 242.71 44.1986 218.66 9.43262Z"
		fill="#D65A1E" />
	<path fill-rule="evenodd" clip-rule="evenodd"
		d="M100.51 37.7448C140.32 38.1428 190.9 63.7569 195.82 78.4009C194.2 115.16 25.2201 104.39 7.44006 165.06L7.19006 165.09C12.7801 113.89 40.0301 69.1798 79.6001 40.3398C86.0601 38.4618 93.1501 37.6718 100.51 37.7448Z"
		fill="url(#paint0_linear_37_827)" />
	<path fill-rule="evenodd" clip-rule="evenodd"
		d="M184.57 6.18262C193.52 6.18262 202.34 6.84502 210.94 8.12012C237.49 36.8551 223.32 62.6691 209.07 70.5581C196.9 79.2211 165.52 24.9771 86.8501 35.3391C114.93 16.9131 148.5 6.18312 184.57 6.18312V6.18262Z"
		fill="url(#paint1_linear_37_827)" />
	<path fill-rule="evenodd" clip-rule="evenodd"
		d="M218.66 9.43262C253.62 16.201 284.945 33.1896 309.412 57.1506L308.974 57.9326C283.237 69.6516 261.22 88.8616 238.54 106.68L211.47 81.4006C229.11 63.6166 242.71 44.1986 218.66 9.43262Z"
		fill="url(#paint2_linear_37_827)" />
	<path fill-rule="evenodd" clip-rule="evenodd"
		d="M314.505 62.3701C339.718 89.1541 356.785 123.71 361.63 162.06C342.663 130.34 314.369 118.82 268.63 142.81L245.16 113.31C260.49 99.4811 292.802 75.6081 314.505 62.3701Z"
		fill="url(#paint3_linear_37_827)" />
	<path fill-rule="evenodd" clip-rule="evenodd"
		d="M308.849 136.15C328.385 136.77 351.184 147.01 361.912 169.28L362.474 170.62C362.834 175.24 363.037 179.91 363.037 184.62C363.037 228.77 346.969 269.17 320.38 300.34C344.989 223.09 270.114 155.17 278.255 147.62C283.637 139.82 295.482 135.73 308.849 136.15H308.849Z"
		fill="url(#paint4_linear_37_827)" />
	<path fill-rule="evenodd" clip-rule="evenodd"
		d="M265.91 158.68C267.54 158.71 269.243 159.04 271.037 159.65C294.294 177.9 336.838 265.72 311.974 309.5C311.969 309.5 311.979 309.52 311.974 309.53C279.582 342.56 234.45 363.06 184.574 363.06C183.204 363.06 181.844 363.06 180.474 363.03C234.214 324.19 222.514 169.35 265.914 158.68H265.91Z"
		fill="url(#paint5_linear_37_827)" />
	<path fill-rule="evenodd" clip-rule="evenodd"
		d="M239.76 119.31L263.22 148.21C206.03 190.11 230.36 335.84 166.94 362.21C122.07 357.8 82.0501 336.74 53.1601 305.31C110.99 235.84 170.8 169.71 239.76 119.31Z"
		fill="url(#paint6_linear_37_827)" />
	<path fill-rule="evenodd" clip-rule="evenodd"
		d="M206.04 86.8081L231.32 112.09C147.56 183.1 94.5601 242.58 48.9701 299.28L48.2201 299.71C21.9601 268.64 6.13007 228.47 6.13007 184.62C6.13007 181.07 6.24007 177.55 6.44006 174.06C38.1601 110.06 157.31 131.04 206.04 86.8081Z"
		fill="url(#paint7_linear_37_827)" />
	<path fill-rule="evenodd" clip-rule="evenodd"
		d="M206.04 86.8081L231.32 112.09C147.56 183.1 94.5601 242.58 48.9701 299.28L48.2201 299.71C21.9601 268.64 6.13007 228.47 6.13007 184.62C6.13007 181.07 6.24007 177.55 6.44006 174.06C38.1601 110.06 157.31 131.04 206.04 86.8081Z"
		fill="url(#paint8_linear_37_827)" />
	<path fill-rule="evenodd" clip-rule="evenodd"
		d="M100.51 37.7448C140.32 38.1428 190.9 63.7569 195.82 78.4009C194.2 115.16 25.2201 104.39 7.44006 165.06L7.19006 165.09C12.7801 113.89 40.0301 69.1798 79.6001 40.3398C86.0601 38.4618 93.1501 37.6718 100.51 37.7448Z"
		fill="url(#paint9_linear_37_827)" />
	<path fill-rule="evenodd" clip-rule="evenodd"
		d="M184.57 6.18262C193.52 6.18262 202.34 6.84502 210.94 8.12012C237.49 36.8551 223.32 62.6691 209.07 70.5581C196.9 79.2211 165.52 24.9771 86.8501 35.3391C114.93 16.9131 148.5 6.18312 184.57 6.18312V6.18262Z"
		fill="url(#paint10_linear_37_827)" />
	<path fill-rule="evenodd" clip-rule="evenodd"
		d="M218.66 9.43262C253.62 16.201 284.945 33.1896 309.412 57.1506L308.974 57.9326C283.237 69.6516 261.22 88.8616 238.54 106.68L211.47 81.4006C229.11 63.6166 242.71 44.1986 218.66 9.43262Z"
		fill="url(#paint11_linear_37_827)" />
	<path fill-rule="evenodd" clip-rule="evenodd"
		d="M314.505 62.3701C339.718 89.1541 356.785 123.71 361.63 162.06C342.663 130.34 314.369 118.82 268.63 142.81L245.16 113.31C260.49 99.4811 292.802 75.6081 314.505 62.3701Z"
		fill="url(#paint12_linear_37_827)" />
	<path fill-rule="evenodd" clip-rule="evenodd"
		d="M239.76 119.31L263.22 148.21C206.03 190.11 230.36 335.84 166.94 362.21C122.07 357.8 82.0501 336.74 53.1601 305.31C110.99 235.84 170.8 169.71 239.76 119.31Z"
		fill="url(#paint13_linear_37_827)" />
	<path fill-rule="evenodd" clip-rule="evenodd"
		d="M265.91 158.68C267.54 158.71 269.243 159.04 271.037 159.65C294.294 177.9 336.838 265.72 311.974 309.5C311.969 309.5 311.979 309.52 311.974 309.53C279.582 342.56 234.45 363.06 184.574 363.06C183.204 363.06 181.844 363.06 180.474 363.03C234.214 324.19 222.514 169.35 265.914 158.68H265.91Z"
		fill="url(#paint14_linear_37_827)" />
	<path fill-rule="evenodd" clip-rule="evenodd"
		d="M308.849 136.15C328.385 136.77 351.184 147.01 361.912 169.28L362.474 170.62C362.834 175.24 363.037 179.91 363.037 184.62C363.037 228.77 346.969 269.17 320.38 300.34C344.989 223.09 270.114 155.17 278.255 147.62C283.637 139.82 295.482 135.73 308.849 136.15H308.849Z"
		fill="url(#paint15_linear_37_827)" />
	<defs>
		<linearGradient id="paint0_linear_37_827" x1="215.68" y1="94.7998" x2="135.38" y2="86.9798"
			gradientUnits="userSpaceOnUse">
			<stop stop-color="#F57936" />
			<stop offset="1" stop-color="#F57936" stop-opacity="0" />
		</linearGradient>
		<linearGradient id="paint1_linear_37_827" x1="207.2" y1="71.5" x2="199.39" y2="34.03"
			gradientUnits="userSpaceOnUse">
			<stop stop-color="#F3813B" />
			<stop offset="1" stop-color="#F3813B" stop-opacity="0" />
		</linearGradient>
		<linearGradient id="paint2_linear_37_827" x1="235.98" y1="106.69" x2="231.33" y2="50.84"
			gradientUnits="userSpaceOnUse">
			<stop stop-color="#F9A465" />
			<stop offset="1" stop-color="#F9A465" stop-opacity="0" />
		</linearGradient>
		<linearGradient id="paint3_linear_37_827" x1="255.7" y1="129.07" x2="316.03" y2="112.22"
			gradientUnits="userSpaceOnUse">
			<stop stop-color="#FAA668" />
			<stop offset="1" stop-color="#FAA668" stop-opacity="0" />
		</linearGradient>
		<linearGradient id="paint4_linear_37_827" x1="282.39" y1="149.02" x2="320.33" y2="176.11"
			gradientUnits="userSpaceOnUse">
			<stop stop-color="#F17E39" />
			<stop offset="1" stop-color="#F17E39" stop-opacity="0" />
		</linearGradient>
		<linearGradient id="paint5_linear_37_827" x1="263.55" y1="158.69" x2="268.34" y2="210.32"
			gradientUnits="userSpaceOnUse">
			<stop stop-color="#F67A34" />
			<stop offset="1" stop-color="#F67A34" stop-opacity="0" />
		</linearGradient>
		<linearGradient id="paint6_linear_37_827" x1="246.37" y1="136.04" x2="204.22" y2="179.98"
			gradientUnits="userSpaceOnUse">
			<stop stop-color="#FC9F59" />
			<stop offset="1" stop-color="#FC9F59" stop-opacity="0" />
		</linearGradient>
		<linearGradient id="paint7_linear_37_827" x1="216.87" y1="104.79" x2="167.42" y2="136.69"
			gradientUnits="userSpaceOnUse">
			<stop stop-color="#FC9F59" />
			<stop offset="1" stop-color="#FC9F59" stop-opacity="0" />
		</linearGradient>
		<linearGradient id="paint8_linear_37_827" x1="15.9801" y1="256.25" x2="163.59" y2="137.09"
			gradientUnits="userSpaceOnUse">
			<stop stop-color="#9F410D" />
			<stop offset="1" stop-color="#9F410D" stop-opacity="0" />
		</linearGradient>
		<linearGradient id="paint9_linear_37_827" x1="39.2101" y1="89.4998" x2="147.63" y2="87.7998"
			gradientUnits="userSpaceOnUse">
			<stop stop-color="#A1420E" />
			<stop offset="1" stop-color="#A1420E" stop-opacity="0" />
		</linearGradient>
		<linearGradient id="paint10_linear_37_827" x1="156.35" y1="6.19002" x2="178.77" y2="38.85"
			gradientUnits="userSpaceOnUse">
			<stop stop-color="#A1420E" />
			<stop offset="1" stop-color="#A1420E" stop-opacity="0" />
		</linearGradient>
		<linearGradient id="paint11_linear_37_827" x1="279.62" y1="14.65" x2="260.44" y2="43.59"
			gradientUnits="userSpaceOnUse">
			<stop stop-color="#A1420E" />
			<stop offset="1" stop-color="#A1420E" stop-opacity="0" />
		</linearGradient>
		<linearGradient id="paint12_linear_37_827" x1="353.12" y1="94.3401" x2="314.1" y2="112.22"
			gradientUnits="userSpaceOnUse">
			<stop stop-color="#A1420E" />
			<stop offset="1" stop-color="#A1420E" stop-opacity="0" />
		</linearGradient>
		<linearGradient id="paint13_linear_37_827" x1="119.38" y1="337.8" x2="216.58" y2="175.23"
			gradientUnits="userSpaceOnUse">
			<stop stop-color="#A1420D" />
			<stop offset="1" stop-color="#A1420D" stop-opacity="0" />
		</linearGradient>
		<linearGradient id="paint14_linear_37_827" x1="257.39" y1="344.29" x2="264.73" y2="217.47"
			gradientUnits="userSpaceOnUse">
			<stop stop-color="#A1420D" />
			<stop offset="1" stop-color="#A1420D" stop-opacity="0" />
		</linearGradient>
		<linearGradient id="paint15_linear_37_827" x1="363.03" y1="218.24" x2="320.33" y2="179.93"
			gradientUnits="userSpaceOnUse">
			<stop stop-color="#A3430E" />
			<stop offset="1" stop-color="#A3430E" stop-opacity="0" />
		</linearGradient>
	</defs>
</svg>